{
    "asset" : {
        "generator" : "Khronos glTF Blender I/O v1.6.16",
        "version" : "2.0"
    },
    "extensionsUsed" : [
        "KHR_materials_transmission"
    ],
    "scene" : 0,
    "scenes" : [
        {
            "name" : "Scene",
            "nodes" : [
                0
            ]
        }
    ],
    "nodes" : [
        {
            "mesh" : 0,
            "name" : "CoffeeCup",
            "translation" : [
                -0.005948665086179972,
                0.02536172792315483,
                -0.0015205484814941883
            ]
        }
    ],
    "animations" : [
        {
            "channels" : [
                {
                    "sampler" : 0,
                    "target" : {
                        "node" : 0,
                        "path" : "rotation"
                    }
                },
                {
                    "sampler" : 1,
                    "target" : {
                        "node" : 0,
                        "path" : "scale"
                    }
                }
            ],
            "name" : "Circle.001Action",
            "samplers" : [
                {
                    "input" : 12,
                    "interpolation" : "STEP",
                    "output" : 13
                },
                {
                    "input" : 12,
                    "interpolation" : "STEP",
                    "output" : 14
                }
            ]
        }
    ],
    "materials" : [
        {
            "doubleSided" : true,
            "extensions" : {
                "KHR_materials_transmission" : {
                    "transmissionFactor" : 1
                }
            },
            "name" : "Glass",
            "pbrMetallicRoughness" : {
                "baseColorFactor" : [
                    0.800000011920929,
                    0.800000011920929,
                    0.800000011920929,
                    1
                ],
                "metallicFactor" : 0,
                "roughnessFactor" : 0
            }
        },
        {
            "doubleSided" : true,
            "extensions" : {
                "KHR_materials_transmission" : {
                    "transmissionFactor" : 1
                }
            },
            "name" : "Condensation",
            "normalTexture" : {
                "index" : 0,
                "scale" : 0.19999992847442627
            },
            "pbrMetallicRoughness" : {
                "metallicFactor" : 0,
                "roughnessFactor" : 0
            }
        },
        {
            "doubleSided" : true,
            "extensions" : {
                "KHR_materials_transmission" : {
                    "transmissionFactor" : 1
                }
            },
            "name" : "Coffee",
            "pbrMetallicRoughness" : {
                "baseColorFactor" : [
                    0.8000000715255737,
                    0.24981383979320526,
                    0.018032651394605637,
                    1
                ],
                "metallicFactor" : 0,
                "roughnessFactor" : 0
            }
        }
    ],
    "meshes" : [
        {
            "name" : "Circle.003",
            "primitives" : [
                {
                    "attributes" : {
                        "POSITION" : 0,
                        "NORMAL" : 1,
                        "TEXCOORD_0" : 2
                    },
                    "indices" : 3,
                    "material" : 0
                },
                {
                    "attributes" : {
                        "POSITION" : 4,
                        "NORMAL" : 5,
                        "TEXCOORD_0" : 6
                    },
                    "indices" : 7,
                    "material" : 1
                },
                {
                    "attributes" : {
                        "POSITION" : 8,
                        "NORMAL" : 9,
                        "TEXCOORD_0" : 10
                    },
                    "indices" : 11,
                    "material" : 2
                }
            ]
        }
    ],
    "textures" : [
        {
            "sampler" : 0,
            "source" : 0
        }
    ],
    "images" : [
        {
            "mimeType" : "image/png",
            "name" : "WaterDropletsMixedBubbled001_NRM16_1K",
            "uri" : "tex/WaterDropletsMixedBubbled001_NRM16_1K.png"
        }
    ],
    "accessors" : [
        {
            "bufferView" : 0,
            "componentType" : 5126,
            "count" : 11552,
            "max" : [
                0.07738770544528961,
                0.05066237598657608,
                0.07738770544528961
            ],
            "min" : [
                -0.07738770544528961,
                -0.023366721346974373,
                -0.07738771289587021
            ],
            "type" : "VEC3"
        },
        {
            "bufferView" : 1,
            "componentType" : 5126,
            "count" : 11552,
            "type" : "VEC3"
        },
        {
            "bufferView" : 2,
            "componentType" : 5126,
            "count" : 11552,
            "type" : "VEC2"
        },
        {
            "bufferView" : 3,
            "componentType" : 5123,
            "count" : 63936,
            "type" : "SCALAR"
        },
        {
            "bufferView" : 4,
            "componentType" : 5126,
            "count" : 1278,
            "max" : [
                0.05154213309288025,
                0.05718907713890076,
                0.050406429916620255
            ],
            "min" : [
                -0.05071954429149628,
                0.044634416699409485,
                -0.05205031484365463
            ],
            "type" : "VEC3"
        },
        {
            "bufferView" : 5,
            "componentType" : 5126,
            "count" : 1278,
            "type" : "VEC3"
        },
        {
            "bufferView" : 6,
            "componentType" : 5126,
            "count" : 1278,
            "type" : "VEC2"
        },
        {
            "bufferView" : 7,
            "componentType" : 5123,
            "count" : 6144,
            "type" : "SCALAR"
        },
        {
            "bufferView" : 8,
            "componentType" : 5126,
            "count" : 11214,
            "max" : [
                0.04765411466360092,
                0.046080976724624634,
                0.04652596637606621
            ],
            "min" : [
                -0.04701791703701019,
                -0.015700634568929672,
                -0.048222865909338
            ],
            "type" : "VEC3"
        },
        {
            "bufferView" : 9,
            "componentType" : 5126,
            "count" : 11214,
            "type" : "VEC3"
        },
        {
            "bufferView" : 10,
            "componentType" : 5126,
            "count" : 11214,
            "type" : "VEC2"
        },
        {
            "bufferView" : 11,
            "componentType" : 5123,
            "count" : 57600,
            "type" : "SCALAR"
        },
        {
            "bufferView" : 12,
            "componentType" : 5126,
            "count" : 1,
            "max" : [
                0.041666666666666664
            ],
            "min" : [
                0.041666666666666664
            ],
            "type" : "SCALAR"
        },
        {
            "bufferView" : 13,
            "componentType" : 5126,
            "count" : 1,
            "type" : "VEC4"
        },
        {
            "bufferView" : 14,
            "componentType" : 5126,
            "count" : 1,
            "type" : "VEC3"
        }
    ],
    "bufferViews" : [
        {
            "buffer" : 0,
            "byteLength" : 138624,
            "byteOffset" : 0
        },
        {
            "buffer" : 0,
            "byteLength" : 138624,
            "byteOffset" : 138624
        },
        {
            "buffer" : 0,
            "byteLength" : 92416,
            "byteOffset" : 277248
        },
        {
            "buffer" : 0,
            "byteLength" : 127872,
            "byteOffset" : 369664
        },
        {
            "buffer" : 0,
            "byteLength" : 15336,
            "byteOffset" : 497536
        },
        {
            "buffer" : 0,
            "byteLength" : 15336,
            "byteOffset" : 512872
        },
        {
            "buffer" : 0,
            "byteLength" : 10224,
            "byteOffset" : 528208
        },
        {
            "buffer" : 0,
            "byteLength" : 12288,
            "byteOffset" : 538432
        },
        {
            "buffer" : 0,
            "byteLength" : 134568,
            "byteOffset" : 550720
        },
        {
            "buffer" : 0,
            "byteLength" : 134568,
            "byteOffset" : 685288
        },
        {
            "buffer" : 0,
            "byteLength" : 89712,
            "byteOffset" : 819856
        },
        {
            "buffer" : 0,
            "byteLength" : 115200,
            "byteOffset" : 909568
        },
        {
            "buffer" : 0,
            "byteLength" : 4,
            "byteOffset" : 1024768
        },
        {
            "buffer" : 0,
            "byteLength" : 16,
            "byteOffset" : 1024772
        },
        {
            "buffer" : 0,
            "byteLength" : 12,
            "byteOffset" : 1024788
        }
    ],
    "samplers" : [
        {
            "magFilter" : 9729,
            "minFilter" : 9987
        }
    ],
    "buffers" : [
        {
            "byteLength" : 1024800,
            "uri" : "CoffeeCup.bin"
        }
    ]
}
